# SPDX-License-Identifier: CC0-1.0
mtllib p12_controlled_glass.mtl
o P12_Controlled_Glass_Rig
v -0.65000000 0.18000000 0.35000000
v -0.65000000 0.22000000 0.35000000
v 0.65000000 0.22000000 0.35000000
v 0.65000000 0.18000000 0.35000000
v -0.65000000 0.18000000 1.65000000
v 0.65000000 0.18000000 1.65000000
v 0.65000000 0.22000000 1.65000000
v -0.65000000 0.22000000 1.65000000
v -0.65000000 0.18000000 0.35000000
v 0.65000000 0.18000000 0.35000000
v 0.65000000 0.18000000 1.65000000
v -0.65000000 0.18000000 1.65000000
v -0.65000000 0.22000000 0.35000000
v -0.65000000 0.22000000 1.65000000
v 0.65000000 0.22000000 1.65000000
v 0.65000000 0.22000000 0.35000000
v -0.65000000 0.18000000 0.35000000
v -0.65000000 0.18000000 1.65000000
v -0.65000000 0.22000000 1.65000000
v -0.65000000 0.22000000 0.35000000
v 0.65000000 0.18000000 0.35000000
v 0.65000000 0.22000000 0.35000000
v 0.65000000 0.22000000 1.65000000
v 0.65000000 0.18000000 1.65000000
v -0.85000000 -0.42000000 0.15000000
v -0.85000000 -0.38000000 0.15000000
v 0.85000000 -0.38000000 0.15000000
v 0.85000000 -0.42000000 0.15000000
v -0.85000000 -0.42000000 1.85000000
v 0.85000000 -0.42000000 1.85000000
v 0.85000000 -0.38000000 1.85000000
v -0.85000000 -0.38000000 1.85000000
v -0.85000000 -0.42000000 0.15000000
v 0.85000000 -0.42000000 0.15000000
v 0.85000000 -0.42000000 1.85000000
v -0.85000000 -0.42000000 1.85000000
v -0.85000000 -0.38000000 0.15000000
v -0.85000000 -0.38000000 1.85000000
v 0.85000000 -0.38000000 1.85000000
v 0.85000000 -0.38000000 0.15000000
v -0.85000000 -0.42000000 0.15000000
v -0.85000000 -0.42000000 1.85000000
v -0.85000000 -0.38000000 1.85000000
v -0.85000000 -0.38000000 0.15000000
v 0.85000000 -0.42000000 0.15000000
v 0.85000000 -0.38000000 0.15000000
v 0.85000000 -0.38000000 1.85000000
v 0.85000000 -0.42000000 1.85000000
g p12_glass_front
vt 0.25000000 0.50000000
vt 0.75000000 0.50000000
usemtl P12_glass
s off
f 1/1 2/1 3/1 4/1
f 5/1 6/1 7/1 8/1
f 9/1 10/1 11/1 12/1
f 13/1 14/1 15/1 16/1
f 17/1 18/1 19/1 20/1
f 21/1 22/1 23/1 24/1
g p12_background
usemtl P12_background
s off
f 25/2 26/2 27/2 28/2
f 29/2 30/2 31/2 32/2
f 33/2 34/2 35/2 36/2
f 37/2 38/2 39/2 40/2
f 41/2 42/2 43/2 44/2
f 45/2 46/2 47/2 48/2
