# SPDX-License-Identifier: CC0-1.0
# Project-authored P11 low-poly civil panel van; units are metres.
mtllib p11_civil_van.mtl
o P11_Civil_Van
v -1.00000000 -2.40000000 0.52000000
v -1.00000000 2.40000000 0.52000000
v 1.00000000 2.40000000 0.52000000
v 1.00000000 -2.40000000 0.52000000
v -1.00000000 -2.40000000 1.43000000
v 1.00000000 -2.40000000 1.43000000
v 1.00000000 2.40000000 1.43000000
v -1.00000000 2.40000000 1.43000000
v -1.00000000 -2.40000000 0.52000000
v 1.00000000 -2.40000000 0.52000000
v 1.00000000 -2.40000000 1.43000000
v -1.00000000 -2.40000000 1.43000000
v -1.00000000 2.40000000 0.52000000
v -1.00000000 2.40000000 1.43000000
v 1.00000000 2.40000000 1.43000000
v 1.00000000 2.40000000 0.52000000
v -1.00000000 -2.40000000 0.52000000
v -1.00000000 -2.40000000 1.43000000
v -1.00000000 2.40000000 1.43000000
v -1.00000000 2.40000000 0.52000000
v 1.00000000 -2.40000000 0.52000000
v 1.00000000 2.40000000 0.52000000
v 1.00000000 2.40000000 1.43000000
v 1.00000000 -2.40000000 1.43000000
v -0.94000000 -2.20000000 1.42000000
v -0.94000000 0.56000000 1.42000000
v 0.94000000 0.56000000 1.42000000
v 0.94000000 -2.20000000 1.42000000
v -0.94000000 -2.20000000 2.34000000
v 0.94000000 -2.20000000 2.34000000
v 0.94000000 0.56000000 2.34000000
v -0.94000000 0.56000000 2.34000000
v -0.94000000 -2.20000000 1.42000000
v 0.94000000 -2.20000000 1.42000000
v 0.94000000 -2.20000000 2.34000000
v -0.94000000 -2.20000000 2.34000000
v -0.94000000 0.56000000 1.42000000
v -0.94000000 0.56000000 2.34000000
v 0.94000000 0.56000000 2.34000000
v 0.94000000 0.56000000 1.42000000
v -0.94000000 -2.20000000 1.42000000
v -0.94000000 -2.20000000 2.34000000
v -0.94000000 0.56000000 2.34000000
v -0.94000000 0.56000000 1.42000000
v 0.94000000 -2.20000000 1.42000000
v 0.94000000 0.56000000 1.42000000
v 0.94000000 0.56000000 2.34000000
v 0.94000000 -2.20000000 2.34000000
v -0.94000000 0.55000000 1.42000000
v -0.94000000 2.16000000 1.42000000
v 0.94000000 2.16000000 1.42000000
v 0.94000000 0.55000000 1.42000000
v -0.94000000 0.55000000 2.34000000
v 0.94000000 0.55000000 2.34000000
v 0.90000000 1.66000000 2.24000000
v -0.90000000 1.66000000 2.24000000
v -0.94000000 0.55000000 1.42000000
v 0.94000000 0.55000000 1.42000000
v 0.94000000 0.55000000 2.34000000
v -0.94000000 0.55000000 2.34000000
v -0.94000000 2.16000000 1.42000000
v -0.90000000 1.66000000 2.24000000
v 0.90000000 1.66000000 2.24000000
v 0.94000000 2.16000000 1.42000000
v -0.94000000 0.55000000 1.42000000
v -0.94000000 0.55000000 2.34000000
v -0.90000000 1.66000000 2.24000000
v -0.94000000 2.16000000 1.42000000
v 0.94000000 0.55000000 1.42000000
v 0.94000000 2.16000000 1.42000000
v 0.90000000 1.66000000 2.24000000
v 0.94000000 0.55000000 2.34000000
v -0.80000000 2.22500000 1.55000000
v -0.76000000 1.78500000 2.12000000
v 0.76000000 1.78500000 2.12000000
v 0.80000000 2.22500000 1.55000000
v -0.97000000 0.76000000 1.57000000
v -0.97000000 0.76000000 2.18000000
v -0.93000000 1.58000000 2.12000000
v -0.97000000 1.58000000 1.57000000
v 0.97000000 1.58000000 1.57000000
v 0.93000000 1.58000000 2.12000000
v 0.97000000 0.76000000 2.18000000
v 0.97000000 0.76000000 1.57000000
v -0.76000000 1.78000000 1.44500000
v -0.76000000 2.33000000 1.44500000
v 0.76000000 2.33000000 1.44500000
v 0.76000000 1.78000000 1.44500000
v -0.76000000 1.78000000 1.53500000
v 0.76000000 1.78000000 1.53500000
v 0.76000000 2.33000000 1.53500000
v -0.76000000 2.33000000 1.53500000
v -0.76000000 1.78000000 1.44500000
v 0.76000000 1.78000000 1.44500000
v 0.76000000 1.78000000 1.53500000
v -0.76000000 1.78000000 1.53500000
v -0.76000000 2.33000000 1.44500000
v -0.76000000 2.33000000 1.53500000
v 0.76000000 2.33000000 1.53500000
v 0.76000000 2.33000000 1.44500000
v -0.76000000 1.78000000 1.44500000
v -0.76000000 1.78000000 1.53500000
v -0.76000000 2.33000000 1.53500000
v -0.76000000 2.33000000 1.44500000
v 0.76000000 1.78000000 1.44500000
v 0.76000000 2.33000000 1.44500000
v 0.76000000 2.33000000 1.53500000
v 0.76000000 1.78000000 1.53500000
v -0.94000000 2.39000000 0.62000000
v -0.94000000 2.51000000 0.62000000
v 0.94000000 2.51000000 0.62000000
v 0.94000000 2.39000000 0.62000000
v -0.94000000 2.39000000 0.86000000
v 0.94000000 2.39000000 0.86000000
v 0.94000000 2.51000000 0.86000000
v -0.94000000 2.51000000 0.86000000
v -0.94000000 2.39000000 0.62000000
v 0.94000000 2.39000000 0.62000000
v 0.94000000 2.39000000 0.86000000
v -0.94000000 2.39000000 0.86000000
v -0.94000000 2.51000000 0.62000000
v -0.94000000 2.51000000 0.86000000
v 0.94000000 2.51000000 0.86000000
v 0.94000000 2.51000000 0.62000000
v -0.94000000 2.39000000 0.62000000
v -0.94000000 2.39000000 0.86000000
v -0.94000000 2.51000000 0.86000000
v -0.94000000 2.51000000 0.62000000
v 0.94000000 2.39000000 0.62000000
v 0.94000000 2.51000000 0.62000000
v 0.94000000 2.51000000 0.86000000
v 0.94000000 2.39000000 0.86000000
v -0.94000000 -2.51000000 0.62000000
v -0.94000000 -2.39000000 0.62000000
v 0.94000000 -2.39000000 0.62000000
v 0.94000000 -2.51000000 0.62000000
v -0.94000000 -2.51000000 0.84000000
v 0.94000000 -2.51000000 0.84000000
v 0.94000000 -2.39000000 0.84000000
v -0.94000000 -2.39000000 0.84000000
v -0.94000000 -2.51000000 0.62000000
v 0.94000000 -2.51000000 0.62000000
v 0.94000000 -2.51000000 0.84000000
v -0.94000000 -2.51000000 0.84000000
v -0.94000000 -2.39000000 0.62000000
v -0.94000000 -2.39000000 0.84000000
v 0.94000000 -2.39000000 0.84000000
v 0.94000000 -2.39000000 0.62000000
v -0.94000000 -2.51000000 0.62000000
v -0.94000000 -2.51000000 0.84000000
v -0.94000000 -2.39000000 0.84000000
v -0.94000000 -2.39000000 0.62000000
v 0.94000000 -2.51000000 0.62000000
v 0.94000000 -2.39000000 0.62000000
v 0.94000000 -2.39000000 0.84000000
v 0.94000000 -2.51000000 0.84000000
v -0.55000000 2.40200000 0.90000000
v -0.55000000 2.51500000 0.90000000
v 0.55000000 2.51500000 0.90000000
v 0.55000000 2.40200000 0.90000000
v -0.55000000 2.40200000 1.20000000
v 0.55000000 2.40200000 1.20000000
v 0.55000000 2.51500000 1.20000000
v -0.55000000 2.51500000 1.20000000
v -0.55000000 2.40200000 0.90000000
v 0.55000000 2.40200000 0.90000000
v 0.55000000 2.40200000 1.20000000
v -0.55000000 2.40200000 1.20000000
v -0.55000000 2.51500000 0.90000000
v -0.55000000 2.51500000 1.20000000
v 0.55000000 2.51500000 1.20000000
v 0.55000000 2.51500000 0.90000000
v -0.55000000 2.40200000 0.90000000
v -0.55000000 2.40200000 1.20000000
v -0.55000000 2.51500000 1.20000000
v -0.55000000 2.51500000 0.90000000
v 0.55000000 2.40200000 0.90000000
v 0.55000000 2.51500000 0.90000000
v 0.55000000 2.51500000 1.20000000
v 0.55000000 2.40200000 1.20000000
v -1.13000000 -1.12000000 0.55000000
v -1.13000000 -1.17760908 0.76500000
v -0.91000000 -1.17760908 0.76500000
v -0.91000000 -1.12000000 0.55000000
v -1.13000000 -1.17760908 0.76500000
v -1.13000000 -1.33500000 0.92239092
v -0.91000000 -1.33500000 0.92239092
v -0.91000000 -1.17760908 0.76500000
v -1.13000000 -1.33500000 0.92239092
v -1.13000000 -1.55000000 0.98000000
v -0.91000000 -1.55000000 0.98000000
v -0.91000000 -1.33500000 0.92239092
v -1.13000000 -1.55000000 0.98000000
v -1.13000000 -1.76500000 0.92239092
v -0.91000000 -1.76500000 0.92239092
v -0.91000000 -1.55000000 0.98000000
v -1.13000000 -1.76500000 0.92239092
v -1.13000000 -1.92239092 0.76500000
v -0.91000000 -1.92239092 0.76500000
v -0.91000000 -1.76500000 0.92239092
v -1.13000000 -1.92239092 0.76500000
v -1.13000000 -1.98000000 0.55000000
v -0.91000000 -1.98000000 0.55000000
v -0.91000000 -1.92239092 0.76500000
v -1.13000000 -1.98000000 0.55000000
v -1.13000000 -1.92239092 0.33500000
v -0.91000000 -1.92239092 0.33500000
v -0.91000000 -1.98000000 0.55000000
v -1.13000000 -1.92239092 0.33500000
v -1.13000000 -1.76500000 0.17760908
v -0.91000000 -1.76500000 0.17760908
v -0.91000000 -1.92239092 0.33500000
v -1.13000000 -1.76500000 0.17760908
v -1.13000000 -1.55000000 0.12000000
v -0.91000000 -1.55000000 0.12000000
v -0.91000000 -1.76500000 0.17760908
v -1.13000000 -1.55000000 0.12000000
v -1.13000000 -1.33500000 0.17760908
v -0.91000000 -1.33500000 0.17760908
v -0.91000000 -1.55000000 0.12000000
v -1.13000000 -1.33500000 0.17760908
v -1.13000000 -1.17760908 0.33500000
v -0.91000000 -1.17760908 0.33500000
v -0.91000000 -1.33500000 0.17760908
v -1.13000000 -1.17760908 0.33500000
v -1.13000000 -1.12000000 0.55000000
v -0.91000000 -1.12000000 0.55000000
v -0.91000000 -1.17760908 0.33500000
v -1.13000000 -1.17760908 0.33500000
v -1.13000000 -1.33500000 0.17760908
v -1.13000000 -1.55000000 0.12000000
v -1.13000000 -1.76500000 0.17760908
v -1.13000000 -1.92239092 0.33500000
v -1.13000000 -1.98000000 0.55000000
v -1.13000000 -1.92239092 0.76500000
v -1.13000000 -1.76500000 0.92239092
v -1.13000000 -1.55000000 0.98000000
v -1.13000000 -1.33500000 0.92239092
v -1.13000000 -1.17760908 0.76500000
v -1.13000000 -1.12000000 0.55000000
v -0.91000000 -1.12000000 0.55000000
v -0.91000000 -1.17760908 0.76500000
v -0.91000000 -1.33500000 0.92239092
v -0.91000000 -1.55000000 0.98000000
v -0.91000000 -1.76500000 0.92239092
v -0.91000000 -1.92239092 0.76500000
v -0.91000000 -1.98000000 0.55000000
v -0.91000000 -1.92239092 0.33500000
v -0.91000000 -1.76500000 0.17760908
v -0.91000000 -1.55000000 0.12000000
v -0.91000000 -1.33500000 0.17760908
v -0.91000000 -1.17760908 0.33500000
v -1.14500000 -1.36000000 0.55000000
v -1.14500000 -1.38545517 0.64500000
v -1.13200000 -1.38545517 0.64500000
v -1.13200000 -1.36000000 0.55000000
v -1.14500000 -1.38545517 0.64500000
v -1.14500000 -1.45500000 0.71454483
v -1.13200000 -1.45500000 0.71454483
v -1.13200000 -1.38545517 0.64500000
v -1.14500000 -1.45500000 0.71454483
v -1.14500000 -1.55000000 0.74000000
v -1.13200000 -1.55000000 0.74000000
v -1.13200000 -1.45500000 0.71454483
v -1.14500000 -1.55000000 0.74000000
v -1.14500000 -1.64500000 0.71454483
v -1.13200000 -1.64500000 0.71454483
v -1.13200000 -1.55000000 0.74000000
v -1.14500000 -1.64500000 0.71454483
v -1.14500000 -1.71454483 0.64500000
v -1.13200000 -1.71454483 0.64500000
v -1.13200000 -1.64500000 0.71454483
v -1.14500000 -1.71454483 0.64500000
v -1.14500000 -1.74000000 0.55000000
v -1.13200000 -1.74000000 0.55000000
v -1.13200000 -1.71454483 0.64500000
v -1.14500000 -1.74000000 0.55000000
v -1.14500000 -1.71454483 0.45500000
v -1.13200000 -1.71454483 0.45500000
v -1.13200000 -1.74000000 0.55000000
v -1.14500000 -1.71454483 0.45500000
v -1.14500000 -1.64500000 0.38545517
v -1.13200000 -1.64500000 0.38545517
v -1.13200000 -1.71454483 0.45500000
v -1.14500000 -1.64500000 0.38545517
v -1.14500000 -1.55000000 0.36000000
v -1.13200000 -1.55000000 0.36000000
v -1.13200000 -1.64500000 0.38545517
v -1.14500000 -1.55000000 0.36000000
v -1.14500000 -1.45500000 0.38545517
v -1.13200000 -1.45500000 0.38545517
v -1.13200000 -1.55000000 0.36000000
v -1.14500000 -1.45500000 0.38545517
v -1.14500000 -1.38545517 0.45500000
v -1.13200000 -1.38545517 0.45500000
v -1.13200000 -1.45500000 0.38545517
v -1.14500000 -1.38545517 0.45500000
v -1.14500000 -1.36000000 0.55000000
v -1.13200000 -1.36000000 0.55000000
v -1.13200000 -1.38545517 0.45500000
v -1.14500000 -1.38545517 0.45500000
v -1.14500000 -1.45500000 0.38545517
v -1.14500000 -1.55000000 0.36000000
v -1.14500000 -1.64500000 0.38545517
v -1.14500000 -1.71454483 0.45500000
v -1.14500000 -1.74000000 0.55000000
v -1.14500000 -1.71454483 0.64500000
v -1.14500000 -1.64500000 0.71454483
v -1.14500000 -1.55000000 0.74000000
v -1.14500000 -1.45500000 0.71454483
v -1.14500000 -1.38545517 0.64500000
v -1.14500000 -1.36000000 0.55000000
v -1.13200000 -1.36000000 0.55000000
v -1.13200000 -1.38545517 0.64500000
v -1.13200000 -1.45500000 0.71454483
v -1.13200000 -1.55000000 0.74000000
v -1.13200000 -1.64500000 0.71454483
v -1.13200000 -1.71454483 0.64500000
v -1.13200000 -1.74000000 0.55000000
v -1.13200000 -1.71454483 0.45500000
v -1.13200000 -1.64500000 0.38545517
v -1.13200000 -1.55000000 0.36000000
v -1.13200000 -1.45500000 0.38545517
v -1.13200000 -1.38545517 0.45500000
v -1.13000000 1.98000000 0.55000000
v -1.13000000 1.92239092 0.76500000
v -0.91000000 1.92239092 0.76500000
v -0.91000000 1.98000000 0.55000000
v -1.13000000 1.92239092 0.76500000
v -1.13000000 1.76500000 0.92239092
v -0.91000000 1.76500000 0.92239092
v -0.91000000 1.92239092 0.76500000
v -1.13000000 1.76500000 0.92239092
v -1.13000000 1.55000000 0.98000000
v -0.91000000 1.55000000 0.98000000
v -0.91000000 1.76500000 0.92239092
v -1.13000000 1.55000000 0.98000000
v -1.13000000 1.33500000 0.92239092
v -0.91000000 1.33500000 0.92239092
v -0.91000000 1.55000000 0.98000000
v -1.13000000 1.33500000 0.92239092
v -1.13000000 1.17760908 0.76500000
v -0.91000000 1.17760908 0.76500000
v -0.91000000 1.33500000 0.92239092
v -1.13000000 1.17760908 0.76500000
v -1.13000000 1.12000000 0.55000000
v -0.91000000 1.12000000 0.55000000
v -0.91000000 1.17760908 0.76500000
v -1.13000000 1.12000000 0.55000000
v -1.13000000 1.17760908 0.33500000
v -0.91000000 1.17760908 0.33500000
v -0.91000000 1.12000000 0.55000000
v -1.13000000 1.17760908 0.33500000
v -1.13000000 1.33500000 0.17760908
v -0.91000000 1.33500000 0.17760908
v -0.91000000 1.17760908 0.33500000
v -1.13000000 1.33500000 0.17760908
v -1.13000000 1.55000000 0.12000000
v -0.91000000 1.55000000 0.12000000
v -0.91000000 1.33500000 0.17760908
v -1.13000000 1.55000000 0.12000000
v -1.13000000 1.76500000 0.17760908
v -0.91000000 1.76500000 0.17760908
v -0.91000000 1.55000000 0.12000000
v -1.13000000 1.76500000 0.17760908
v -1.13000000 1.92239092 0.33500000
v -0.91000000 1.92239092 0.33500000
v -0.91000000 1.76500000 0.17760908
v -1.13000000 1.92239092 0.33500000
v -1.13000000 1.98000000 0.55000000
v -0.91000000 1.98000000 0.55000000
v -0.91000000 1.92239092 0.33500000
v -1.13000000 1.92239092 0.33500000
v -1.13000000 1.76500000 0.17760908
v -1.13000000 1.55000000 0.12000000
v -1.13000000 1.33500000 0.17760908
v -1.13000000 1.17760908 0.33500000
v -1.13000000 1.12000000 0.55000000
v -1.13000000 1.17760908 0.76500000
v -1.13000000 1.33500000 0.92239092
v -1.13000000 1.55000000 0.98000000
v -1.13000000 1.76500000 0.92239092
v -1.13000000 1.92239092 0.76500000
v -1.13000000 1.98000000 0.55000000
v -0.91000000 1.98000000 0.55000000
v -0.91000000 1.92239092 0.76500000
v -0.91000000 1.76500000 0.92239092
v -0.91000000 1.55000000 0.98000000
v -0.91000000 1.33500000 0.92239092
v -0.91000000 1.17760908 0.76500000
v -0.91000000 1.12000000 0.55000000
v -0.91000000 1.17760908 0.33500000
v -0.91000000 1.33500000 0.17760908
v -0.91000000 1.55000000 0.12000000
v -0.91000000 1.76500000 0.17760908
v -0.91000000 1.92239092 0.33500000
v -1.14500000 1.74000000 0.55000000
v -1.14500000 1.71454483 0.64500000
v -1.13200000 1.71454483 0.64500000
v -1.13200000 1.74000000 0.55000000
v -1.14500000 1.71454483 0.64500000
v -1.14500000 1.64500000 0.71454483
v -1.13200000 1.64500000 0.71454483
v -1.13200000 1.71454483 0.64500000
v -1.14500000 1.64500000 0.71454483
v -1.14500000 1.55000000 0.74000000
v -1.13200000 1.55000000 0.74000000
v -1.13200000 1.64500000 0.71454483
v -1.14500000 1.55000000 0.74000000
v -1.14500000 1.45500000 0.71454483
v -1.13200000 1.45500000 0.71454483
v -1.13200000 1.55000000 0.74000000
v -1.14500000 1.45500000 0.71454483
v -1.14500000 1.38545517 0.64500000
v -1.13200000 1.38545517 0.64500000
v -1.13200000 1.45500000 0.71454483
v -1.14500000 1.38545517 0.64500000
v -1.14500000 1.36000000 0.55000000
v -1.13200000 1.36000000 0.55000000
v -1.13200000 1.38545517 0.64500000
v -1.14500000 1.36000000 0.55000000
v -1.14500000 1.38545517 0.45500000
v -1.13200000 1.38545517 0.45500000
v -1.13200000 1.36000000 0.55000000
v -1.14500000 1.38545517 0.45500000
v -1.14500000 1.45500000 0.38545517
v -1.13200000 1.45500000 0.38545517
v -1.13200000 1.38545517 0.45500000
v -1.14500000 1.45500000 0.38545517
v -1.14500000 1.55000000 0.36000000
v -1.13200000 1.55000000 0.36000000
v -1.13200000 1.45500000 0.38545517
v -1.14500000 1.55000000 0.36000000
v -1.14500000 1.64500000 0.38545517
v -1.13200000 1.64500000 0.38545517
v -1.13200000 1.55000000 0.36000000
v -1.14500000 1.64500000 0.38545517
v -1.14500000 1.71454483 0.45500000
v -1.13200000 1.71454483 0.45500000
v -1.13200000 1.64500000 0.38545517
v -1.14500000 1.71454483 0.45500000
v -1.14500000 1.74000000 0.55000000
v -1.13200000 1.74000000 0.55000000
v -1.13200000 1.71454483 0.45500000
v -1.14500000 1.71454483 0.45500000
v -1.14500000 1.64500000 0.38545517
v -1.14500000 1.55000000 0.36000000
v -1.14500000 1.45500000 0.38545517
v -1.14500000 1.38545517 0.45500000
v -1.14500000 1.36000000 0.55000000
v -1.14500000 1.38545517 0.64500000
v -1.14500000 1.45500000 0.71454483
v -1.14500000 1.55000000 0.74000000
v -1.14500000 1.64500000 0.71454483
v -1.14500000 1.71454483 0.64500000
v -1.14500000 1.74000000 0.55000000
v -1.13200000 1.74000000 0.55000000
v -1.13200000 1.71454483 0.64500000
v -1.13200000 1.64500000 0.71454483
v -1.13200000 1.55000000 0.74000000
v -1.13200000 1.45500000 0.71454483
v -1.13200000 1.38545517 0.64500000
v -1.13200000 1.36000000 0.55000000
v -1.13200000 1.38545517 0.45500000
v -1.13200000 1.45500000 0.38545517
v -1.13200000 1.55000000 0.36000000
v -1.13200000 1.64500000 0.38545517
v -1.13200000 1.71454483 0.45500000
v 0.91000000 -1.12000000 0.55000000
v 0.91000000 -1.17760908 0.76500000
v 1.13000000 -1.17760908 0.76500000
v 1.13000000 -1.12000000 0.55000000
v 0.91000000 -1.17760908 0.76500000
v 0.91000000 -1.33500000 0.92239092
v 1.13000000 -1.33500000 0.92239092
v 1.13000000 -1.17760908 0.76500000
v 0.91000000 -1.33500000 0.92239092
v 0.91000000 -1.55000000 0.98000000
v 1.13000000 -1.55000000 0.98000000
v 1.13000000 -1.33500000 0.92239092
v 0.91000000 -1.55000000 0.98000000
v 0.91000000 -1.76500000 0.92239092
v 1.13000000 -1.76500000 0.92239092
v 1.13000000 -1.55000000 0.98000000
v 0.91000000 -1.76500000 0.92239092
v 0.91000000 -1.92239092 0.76500000
v 1.13000000 -1.92239092 0.76500000
v 1.13000000 -1.76500000 0.92239092
v 0.91000000 -1.92239092 0.76500000
v 0.91000000 -1.98000000 0.55000000
v 1.13000000 -1.98000000 0.55000000
v 1.13000000 -1.92239092 0.76500000
v 0.91000000 -1.98000000 0.55000000
v 0.91000000 -1.92239092 0.33500000
v 1.13000000 -1.92239092 0.33500000
v 1.13000000 -1.98000000 0.55000000
v 0.91000000 -1.92239092 0.33500000
v 0.91000000 -1.76500000 0.17760908
v 1.13000000 -1.76500000 0.17760908
v 1.13000000 -1.92239092 0.33500000
v 0.91000000 -1.76500000 0.17760908
v 0.91000000 -1.55000000 0.12000000
v 1.13000000 -1.55000000 0.12000000
v 1.13000000 -1.76500000 0.17760908
v 0.91000000 -1.55000000 0.12000000
v 0.91000000 -1.33500000 0.17760908
v 1.13000000 -1.33500000 0.17760908
v 1.13000000 -1.55000000 0.12000000
v 0.91000000 -1.33500000 0.17760908
v 0.91000000 -1.17760908 0.33500000
v 1.13000000 -1.17760908 0.33500000
v 1.13000000 -1.33500000 0.17760908
v 0.91000000 -1.17760908 0.33500000
v 0.91000000 -1.12000000 0.55000000
v 1.13000000 -1.12000000 0.55000000
v 1.13000000 -1.17760908 0.33500000
v 0.91000000 -1.17760908 0.33500000
v 0.91000000 -1.33500000 0.17760908
v 0.91000000 -1.55000000 0.12000000
v 0.91000000 -1.76500000 0.17760908
v 0.91000000 -1.92239092 0.33500000
v 0.91000000 -1.98000000 0.55000000
v 0.91000000 -1.92239092 0.76500000
v 0.91000000 -1.76500000 0.92239092
v 0.91000000 -1.55000000 0.98000000
v 0.91000000 -1.33500000 0.92239092
v 0.91000000 -1.17760908 0.76500000
v 0.91000000 -1.12000000 0.55000000
v 1.13000000 -1.12000000 0.55000000
v 1.13000000 -1.17760908 0.76500000
v 1.13000000 -1.33500000 0.92239092
v 1.13000000 -1.55000000 0.98000000
v 1.13000000 -1.76500000 0.92239092
v 1.13000000 -1.92239092 0.76500000
v 1.13000000 -1.98000000 0.55000000
v 1.13000000 -1.92239092 0.33500000
v 1.13000000 -1.76500000 0.17760908
v 1.13000000 -1.55000000 0.12000000
v 1.13000000 -1.33500000 0.17760908
v 1.13000000 -1.17760908 0.33500000
v 1.13200000 -1.36000000 0.55000000
v 1.13200000 -1.38545517 0.64500000
v 1.14500000 -1.38545517 0.64500000
v 1.14500000 -1.36000000 0.55000000
v 1.13200000 -1.38545517 0.64500000
v 1.13200000 -1.45500000 0.71454483
v 1.14500000 -1.45500000 0.71454483
v 1.14500000 -1.38545517 0.64500000
v 1.13200000 -1.45500000 0.71454483
v 1.13200000 -1.55000000 0.74000000
v 1.14500000 -1.55000000 0.74000000
v 1.14500000 -1.45500000 0.71454483
v 1.13200000 -1.55000000 0.74000000
v 1.13200000 -1.64500000 0.71454483
v 1.14500000 -1.64500000 0.71454483
v 1.14500000 -1.55000000 0.74000000
v 1.13200000 -1.64500000 0.71454483
v 1.13200000 -1.71454483 0.64500000
v 1.14500000 -1.71454483 0.64500000
v 1.14500000 -1.64500000 0.71454483
v 1.13200000 -1.71454483 0.64500000
v 1.13200000 -1.74000000 0.55000000
v 1.14500000 -1.74000000 0.55000000
v 1.14500000 -1.71454483 0.64500000
v 1.13200000 -1.74000000 0.55000000
v 1.13200000 -1.71454483 0.45500000
v 1.14500000 -1.71454483 0.45500000
v 1.14500000 -1.74000000 0.55000000
v 1.13200000 -1.71454483 0.45500000
v 1.13200000 -1.64500000 0.38545517
v 1.14500000 -1.64500000 0.38545517
v 1.14500000 -1.71454483 0.45500000
v 1.13200000 -1.64500000 0.38545517
v 1.13200000 -1.55000000 0.36000000
v 1.14500000 -1.55000000 0.36000000
v 1.14500000 -1.64500000 0.38545517
v 1.13200000 -1.55000000 0.36000000
v 1.13200000 -1.45500000 0.38545517
v 1.14500000 -1.45500000 0.38545517
v 1.14500000 -1.55000000 0.36000000
v 1.13200000 -1.45500000 0.38545517
v 1.13200000 -1.38545517 0.45500000
v 1.14500000 -1.38545517 0.45500000
v 1.14500000 -1.45500000 0.38545517
v 1.13200000 -1.38545517 0.45500000
v 1.13200000 -1.36000000 0.55000000
v 1.14500000 -1.36000000 0.55000000
v 1.14500000 -1.38545517 0.45500000
v 1.13200000 -1.38545517 0.45500000
v 1.13200000 -1.45500000 0.38545517
v 1.13200000 -1.55000000 0.36000000
v 1.13200000 -1.64500000 0.38545517
v 1.13200000 -1.71454483 0.45500000
v 1.13200000 -1.74000000 0.55000000
v 1.13200000 -1.71454483 0.64500000
v 1.13200000 -1.64500000 0.71454483
v 1.13200000 -1.55000000 0.74000000
v 1.13200000 -1.45500000 0.71454483
v 1.13200000 -1.38545517 0.64500000
v 1.13200000 -1.36000000 0.55000000
v 1.14500000 -1.36000000 0.55000000
v 1.14500000 -1.38545517 0.64500000
v 1.14500000 -1.45500000 0.71454483
v 1.14500000 -1.55000000 0.74000000
v 1.14500000 -1.64500000 0.71454483
v 1.14500000 -1.71454483 0.64500000
v 1.14500000 -1.74000000 0.55000000
v 1.14500000 -1.71454483 0.45500000
v 1.14500000 -1.64500000 0.38545517
v 1.14500000 -1.55000000 0.36000000
v 1.14500000 -1.45500000 0.38545517
v 1.14500000 -1.38545517 0.45500000
v 0.91000000 1.98000000 0.55000000
v 0.91000000 1.92239092 0.76500000
v 1.13000000 1.92239092 0.76500000
v 1.13000000 1.98000000 0.55000000
v 0.91000000 1.92239092 0.76500000
v 0.91000000 1.76500000 0.92239092
v 1.13000000 1.76500000 0.92239092
v 1.13000000 1.92239092 0.76500000
v 0.91000000 1.76500000 0.92239092
v 0.91000000 1.55000000 0.98000000
v 1.13000000 1.55000000 0.98000000
v 1.13000000 1.76500000 0.92239092
v 0.91000000 1.55000000 0.98000000
v 0.91000000 1.33500000 0.92239092
v 1.13000000 1.33500000 0.92239092
v 1.13000000 1.55000000 0.98000000
v 0.91000000 1.33500000 0.92239092
v 0.91000000 1.17760908 0.76500000
v 1.13000000 1.17760908 0.76500000
v 1.13000000 1.33500000 0.92239092
v 0.91000000 1.17760908 0.76500000
v 0.91000000 1.12000000 0.55000000
v 1.13000000 1.12000000 0.55000000
v 1.13000000 1.17760908 0.76500000
v 0.91000000 1.12000000 0.55000000
v 0.91000000 1.17760908 0.33500000
v 1.13000000 1.17760908 0.33500000
v 1.13000000 1.12000000 0.55000000
v 0.91000000 1.17760908 0.33500000
v 0.91000000 1.33500000 0.17760908
v 1.13000000 1.33500000 0.17760908
v 1.13000000 1.17760908 0.33500000
v 0.91000000 1.33500000 0.17760908
v 0.91000000 1.55000000 0.12000000
v 1.13000000 1.55000000 0.12000000
v 1.13000000 1.33500000 0.17760908
v 0.91000000 1.55000000 0.12000000
v 0.91000000 1.76500000 0.17760908
v 1.13000000 1.76500000 0.17760908
v 1.13000000 1.55000000 0.12000000
v 0.91000000 1.76500000 0.17760908
v 0.91000000 1.92239092 0.33500000
v 1.13000000 1.92239092 0.33500000
v 1.13000000 1.76500000 0.17760908
v 0.91000000 1.92239092 0.33500000
v 0.91000000 1.98000000 0.55000000
v 1.13000000 1.98000000 0.55000000
v 1.13000000 1.92239092 0.33500000
v 0.91000000 1.92239092 0.33500000
v 0.91000000 1.76500000 0.17760908
v 0.91000000 1.55000000 0.12000000
v 0.91000000 1.33500000 0.17760908
v 0.91000000 1.17760908 0.33500000
v 0.91000000 1.12000000 0.55000000
v 0.91000000 1.17760908 0.76500000
v 0.91000000 1.33500000 0.92239092
v 0.91000000 1.55000000 0.98000000
v 0.91000000 1.76500000 0.92239092
v 0.91000000 1.92239092 0.76500000
v 0.91000000 1.98000000 0.55000000
v 1.13000000 1.98000000 0.55000000
v 1.13000000 1.92239092 0.76500000
v 1.13000000 1.76500000 0.92239092
v 1.13000000 1.55000000 0.98000000
v 1.13000000 1.33500000 0.92239092
v 1.13000000 1.17760908 0.76500000
v 1.13000000 1.12000000 0.55000000
v 1.13000000 1.17760908 0.33500000
v 1.13000000 1.33500000 0.17760908
v 1.13000000 1.55000000 0.12000000
v 1.13000000 1.76500000 0.17760908
v 1.13000000 1.92239092 0.33500000
v 1.13200000 1.74000000 0.55000000
v 1.13200000 1.71454483 0.64500000
v 1.14500000 1.71454483 0.64500000
v 1.14500000 1.74000000 0.55000000
v 1.13200000 1.71454483 0.64500000
v 1.13200000 1.64500000 0.71454483
v 1.14500000 1.64500000 0.71454483
v 1.14500000 1.71454483 0.64500000
v 1.13200000 1.64500000 0.71454483
v 1.13200000 1.55000000 0.74000000
v 1.14500000 1.55000000 0.74000000
v 1.14500000 1.64500000 0.71454483
v 1.13200000 1.55000000 0.74000000
v 1.13200000 1.45500000 0.71454483
v 1.14500000 1.45500000 0.71454483
v 1.14500000 1.55000000 0.74000000
v 1.13200000 1.45500000 0.71454483
v 1.13200000 1.38545517 0.64500000
v 1.14500000 1.38545517 0.64500000
v 1.14500000 1.45500000 0.71454483
v 1.13200000 1.38545517 0.64500000
v 1.13200000 1.36000000 0.55000000
v 1.14500000 1.36000000 0.55000000
v 1.14500000 1.38545517 0.64500000
v 1.13200000 1.36000000 0.55000000
v 1.13200000 1.38545517 0.45500000
v 1.14500000 1.38545517 0.45500000
v 1.14500000 1.36000000 0.55000000
v 1.13200000 1.38545517 0.45500000
v 1.13200000 1.45500000 0.38545517
v 1.14500000 1.45500000 0.38545517
v 1.14500000 1.38545517 0.45500000
v 1.13200000 1.45500000 0.38545517
v 1.13200000 1.55000000 0.36000000
v 1.14500000 1.55000000 0.36000000
v 1.14500000 1.45500000 0.38545517
v 1.13200000 1.55000000 0.36000000
v 1.13200000 1.64500000 0.38545517
v 1.14500000 1.64500000 0.38545517
v 1.14500000 1.55000000 0.36000000
v 1.13200000 1.64500000 0.38545517
v 1.13200000 1.71454483 0.45500000
v 1.14500000 1.71454483 0.45500000
v 1.14500000 1.64500000 0.38545517
v 1.13200000 1.71454483 0.45500000
v 1.13200000 1.74000000 0.55000000
v 1.14500000 1.74000000 0.55000000
v 1.14500000 1.71454483 0.45500000
v 1.13200000 1.71454483 0.45500000
v 1.13200000 1.64500000 0.38545517
v 1.13200000 1.55000000 0.36000000
v 1.13200000 1.45500000 0.38545517
v 1.13200000 1.38545517 0.45500000
v 1.13200000 1.36000000 0.55000000
v 1.13200000 1.38545517 0.64500000
v 1.13200000 1.45500000 0.71454483
v 1.13200000 1.55000000 0.74000000
v 1.13200000 1.64500000 0.71454483
v 1.13200000 1.71454483 0.64500000
v 1.13200000 1.74000000 0.55000000
v 1.14500000 1.74000000 0.55000000
v 1.14500000 1.71454483 0.64500000
v 1.14500000 1.64500000 0.71454483
v 1.14500000 1.55000000 0.74000000
v 1.14500000 1.45500000 0.71454483
v 1.14500000 1.38545517 0.64500000
v 1.14500000 1.36000000 0.55000000
v 1.14500000 1.38545517 0.45500000
v 1.14500000 1.45500000 0.38545517
v 1.14500000 1.55000000 0.36000000
v 1.14500000 1.64500000 0.38545517
v 1.14500000 1.71454483 0.45500000
v 0.76500000 -2.88000000 0.56000000
v 0.76500000 -2.12000000 0.56000000
v 0.74494678 -2.12000000 0.62171745
v 0.74494678 -2.88000000 0.62171745
v 0.74494678 -2.88000000 0.62171745
v 0.74494678 -2.12000000 0.62171745
v 0.69244678 -2.12000000 0.65986093
v 0.69244678 -2.88000000 0.65986093
v 0.69244678 -2.88000000 0.65986093
v 0.69244678 -2.12000000 0.65986093
v 0.62755322 -2.12000000 0.65986093
v 0.62755322 -2.88000000 0.65986093
v 0.62755322 -2.88000000 0.65986093
v 0.62755322 -2.12000000 0.65986093
v 0.57505322 -2.12000000 0.62171745
v 0.57505322 -2.88000000 0.62171745
v 0.57505322 -2.88000000 0.62171745
v 0.57505322 -2.12000000 0.62171745
v 0.55500000 -2.12000000 0.56000000
v 0.55500000 -2.88000000 0.56000000
v 0.55500000 -2.88000000 0.56000000
v 0.55500000 -2.12000000 0.56000000
v 0.57505322 -2.12000000 0.49828255
v 0.57505322 -2.88000000 0.49828255
v 0.57505322 -2.88000000 0.49828255
v 0.57505322 -2.12000000 0.49828255
v 0.62755322 -2.12000000 0.46013907
v 0.62755322 -2.88000000 0.46013907
v 0.62755322 -2.88000000 0.46013907
v 0.62755322 -2.12000000 0.46013907
v 0.69244678 -2.12000000 0.46013907
v 0.69244678 -2.88000000 0.46013907
v 0.69244678 -2.88000000 0.46013907
v 0.69244678 -2.12000000 0.46013907
v 0.74494678 -2.12000000 0.49828255
v 0.74494678 -2.88000000 0.49828255
v 0.74494678 -2.88000000 0.49828255
v 0.74494678 -2.12000000 0.49828255
v 0.76500000 -2.12000000 0.56000000
v 0.76500000 -2.88000000 0.56000000
v 0.74494678 -2.88000000 0.49828255
v 0.69244678 -2.88000000 0.46013907
v 0.62755322 -2.88000000 0.46013907
v 0.57505322 -2.88000000 0.49828255
v 0.55500000 -2.88000000 0.56000000
v 0.57505322 -2.88000000 0.62171745
v 0.62755322 -2.88000000 0.65986093
v 0.69244678 -2.88000000 0.65986093
v 0.74494678 -2.88000000 0.62171745
v 0.76500000 -2.88000000 0.56000000
v 0.76500000 -2.12000000 0.56000000
v 0.74494678 -2.12000000 0.62171745
v 0.69244678 -2.12000000 0.65986093
v 0.62755322 -2.12000000 0.65986093
v 0.57505322 -2.12000000 0.62171745
v 0.55500000 -2.12000000 0.56000000
v 0.57505322 -2.12000000 0.49828255
v 0.62755322 -2.12000000 0.46013907
v 0.69244678 -2.12000000 0.46013907
v 0.74494678 -2.12000000 0.49828255
v 0.43000000 -2.10000000 0.42000000
v 0.43000000 -1.48000000 0.42000000
v 0.86000000 -1.48000000 0.42000000
v 0.86000000 -2.10000000 0.42000000
v 0.43000000 -2.10000000 0.68000000
v 0.86000000 -2.10000000 0.68000000
v 0.86000000 -1.48000000 0.68000000
v 0.43000000 -1.48000000 0.68000000
v 0.43000000 -2.10000000 0.42000000
v 0.86000000 -2.10000000 0.42000000
v 0.86000000 -2.10000000 0.68000000
v 0.43000000 -2.10000000 0.68000000
v 0.43000000 -1.48000000 0.42000000
v 0.43000000 -1.48000000 0.68000000
v 0.86000000 -1.48000000 0.68000000
v 0.86000000 -1.48000000 0.42000000
v 0.43000000 -2.10000000 0.42000000
v 0.43000000 -2.10000000 0.68000000
v 0.43000000 -1.48000000 0.68000000
v 0.43000000 -1.48000000 0.42000000
v 0.86000000 -2.10000000 0.42000000
v 0.86000000 -1.48000000 0.42000000
v 0.86000000 -1.48000000 0.68000000
v 0.86000000 -2.10000000 0.68000000
vt 0.08333333 0.50000000
vt 0.08333333 0.50000000
vt 0.08333333 0.50000000
vt 0.08333333 0.50000000
vt 0.08333333 0.50000000
vt 0.08333333 0.50000000
vt 0.08333333 0.50000000
vt 0.08333333 0.50000000
vt 0.08333333 0.50000000
vt 0.08333333 0.50000000
vt 0.08333333 0.50000000
vt 0.08333333 0.50000000
vt 0.08333333 0.50000000
vt 0.08333333 0.50000000
vt 0.08333333 0.50000000
vt 0.08333333 0.50000000
vt 0.08333333 0.50000000
vt 0.08333333 0.50000000
vt 0.08333333 0.50000000
vt 0.08333333 0.50000000
vt 0.08333333 0.50000000
vt 0.08333333 0.50000000
vt 0.08333333 0.50000000
vt 0.08333333 0.50000000
vt 0.08333333 0.50000000
vt 0.08333333 0.50000000
vt 0.08333333 0.50000000
vt 0.08333333 0.50000000
vt 0.08333333 0.50000000
vt 0.08333333 0.50000000
vt 0.08333333 0.50000000
vt 0.08333333 0.50000000
vt 0.08333333 0.50000000
vt 0.08333333 0.50000000
vt 0.08333333 0.50000000
vt 0.08333333 0.50000000
vt 0.08333333 0.50000000
vt 0.08333333 0.50000000
vt 0.08333333 0.50000000
vt 0.08333333 0.50000000
vt 0.08333333 0.50000000
vt 0.08333333 0.50000000
vt 0.08333333 0.50000000
vt 0.08333333 0.50000000
vt 0.08333333 0.50000000
vt 0.08333333 0.50000000
vt 0.08333333 0.50000000
vt 0.08333333 0.50000000
vt 0.08333333 0.50000000
vt 0.08333333 0.50000000
vt 0.08333333 0.50000000
vt 0.08333333 0.50000000
vt 0.08333333 0.50000000
vt 0.08333333 0.50000000
vt 0.08333333 0.50000000
vt 0.08333333 0.50000000
vt 0.08333333 0.50000000
vt 0.08333333 0.50000000
vt 0.08333333 0.50000000
vt 0.08333333 0.50000000
vt 0.08333333 0.50000000
vt 0.08333333 0.50000000
vt 0.08333333 0.50000000
vt 0.08333333 0.50000000
vt 0.08333333 0.50000000
vt 0.08333333 0.50000000
vt 0.08333333 0.50000000
vt 0.08333333 0.50000000
vt 0.08333333 0.50000000
vt 0.08333333 0.50000000
vt 0.08333333 0.50000000
vt 0.08333333 0.50000000
vt 0.41666667 0.50000000
vt 0.41666667 0.50000000
vt 0.41666667 0.50000000
vt 0.41666667 0.50000000
vt 0.41666667 0.50000000
vt 0.41666667 0.50000000
vt 0.41666667 0.50000000
vt 0.41666667 0.50000000
vt 0.41666667 0.50000000
vt 0.41666667 0.50000000
vt 0.41666667 0.50000000
vt 0.41666667 0.50000000
vt 0.75000000 0.50000000
vt 0.75000000 0.50000000
vt 0.75000000 0.50000000
vt 0.75000000 0.50000000
vt 0.75000000 0.50000000
vt 0.75000000 0.50000000
vt 0.75000000 0.50000000
vt 0.75000000 0.50000000
vt 0.75000000 0.50000000
vt 0.75000000 0.50000000
vt 0.75000000 0.50000000
vt 0.75000000 0.50000000
vt 0.75000000 0.50000000
vt 0.75000000 0.50000000
vt 0.75000000 0.50000000
vt 0.75000000 0.50000000
vt 0.75000000 0.50000000
vt 0.75000000 0.50000000
vt 0.75000000 0.50000000
vt 0.75000000 0.50000000
vt 0.75000000 0.50000000
vt 0.75000000 0.50000000
vt 0.75000000 0.50000000
vt 0.75000000 0.50000000
vt 0.25000000 0.50000000
vt 0.25000000 0.50000000
vt 0.25000000 0.50000000
vt 0.25000000 0.50000000
vt 0.25000000 0.50000000
vt 0.25000000 0.50000000
vt 0.25000000 0.50000000
vt 0.25000000 0.50000000
vt 0.25000000 0.50000000
vt 0.25000000 0.50000000
vt 0.25000000 0.50000000
vt 0.25000000 0.50000000
vt 0.25000000 0.50000000
vt 0.25000000 0.50000000
vt 0.25000000 0.50000000
vt 0.25000000 0.50000000
vt 0.25000000 0.50000000
vt 0.25000000 0.50000000
vt 0.25000000 0.50000000
vt 0.25000000 0.50000000
vt 0.25000000 0.50000000
vt 0.25000000 0.50000000
vt 0.25000000 0.50000000
vt 0.25000000 0.50000000
vt 0.25000000 0.50000000
vt 0.25000000 0.50000000
vt 0.25000000 0.50000000
vt 0.25000000 0.50000000
vt 0.25000000 0.50000000
vt 0.25000000 0.50000000
vt 0.25000000 0.50000000
vt 0.25000000 0.50000000
vt 0.25000000 0.50000000
vt 0.25000000 0.50000000
vt 0.25000000 0.50000000
vt 0.25000000 0.50000000
vt 0.25000000 0.50000000
vt 0.25000000 0.50000000
vt 0.25000000 0.50000000
vt 0.25000000 0.50000000
vt 0.25000000 0.50000000
vt 0.25000000 0.50000000
vt 0.25000000 0.50000000
vt 0.25000000 0.50000000
vt 0.25000000 0.50000000
vt 0.25000000 0.50000000
vt 0.25000000 0.50000000
vt 0.25000000 0.50000000
vt 0.25000000 0.50000000
vt 0.25000000 0.50000000
vt 0.25000000 0.50000000
vt 0.25000000 0.50000000
vt 0.25000000 0.50000000
vt 0.25000000 0.50000000
vt 0.25000000 0.50000000
vt 0.25000000 0.50000000
vt 0.25000000 0.50000000
vt 0.25000000 0.50000000
vt 0.25000000 0.50000000
vt 0.25000000 0.50000000
vt 0.25000000 0.50000000
vt 0.25000000 0.50000000
vt 0.25000000 0.50000000
vt 0.25000000 0.50000000
vt 0.25000000 0.50000000
vt 0.25000000 0.50000000
vt 0.25000000 0.50000000
vt 0.25000000 0.50000000
vt 0.25000000 0.50000000
vt 0.25000000 0.50000000
vt 0.25000000 0.50000000
vt 0.25000000 0.50000000
vt 0.58333333 0.50000000
vt 0.58333333 0.50000000
vt 0.58333333 0.50000000
vt 0.58333333 0.50000000
vt 0.58333333 0.50000000
vt 0.58333333 0.50000000
vt 0.58333333 0.50000000
vt 0.58333333 0.50000000
vt 0.58333333 0.50000000
vt 0.58333333 0.50000000
vt 0.58333333 0.50000000
vt 0.58333333 0.50000000
vt 0.58333333 0.50000000
vt 0.58333333 0.50000000
vt 0.58333333 0.50000000
vt 0.58333333 0.50000000
vt 0.58333333 0.50000000
vt 0.58333333 0.50000000
vt 0.58333333 0.50000000
vt 0.58333333 0.50000000
vt 0.58333333 0.50000000
vt 0.58333333 0.50000000
vt 0.58333333 0.50000000
vt 0.58333333 0.50000000
vt 0.58333333 0.50000000
vt 0.58333333 0.50000000
vt 0.58333333 0.50000000
vt 0.58333333 0.50000000
vt 0.58333333 0.50000000
vt 0.58333333 0.50000000
vt 0.58333333 0.50000000
vt 0.58333333 0.50000000
vt 0.58333333 0.50000000
vt 0.58333333 0.50000000
vt 0.58333333 0.50000000
vt 0.58333333 0.50000000
vt 0.58333333 0.50000000
vt 0.58333333 0.50000000
vt 0.58333333 0.50000000
vt 0.58333333 0.50000000
vt 0.58333333 0.50000000
vt 0.58333333 0.50000000
vt 0.58333333 0.50000000
vt 0.58333333 0.50000000
vt 0.58333333 0.50000000
vt 0.58333333 0.50000000
vt 0.58333333 0.50000000
vt 0.58333333 0.50000000
vt 0.58333333 0.50000000
vt 0.58333333 0.50000000
vt 0.58333333 0.50000000
vt 0.58333333 0.50000000
vt 0.58333333 0.50000000
vt 0.58333333 0.50000000
vt 0.58333333 0.50000000
vt 0.58333333 0.50000000
vt 0.58333333 0.50000000
vt 0.58333333 0.50000000
vt 0.58333333 0.50000000
vt 0.58333333 0.50000000
vt 0.58333333 0.50000000
vt 0.58333333 0.50000000
vt 0.58333333 0.50000000
vt 0.58333333 0.50000000
vt 0.58333333 0.50000000
vt 0.58333333 0.50000000
vt 0.58333333 0.50000000
vt 0.58333333 0.50000000
vt 0.58333333 0.50000000
vt 0.58333333 0.50000000
vt 0.58333333 0.50000000
vt 0.58333333 0.50000000
vt 0.25000000 0.50000000
vt 0.25000000 0.50000000
vt 0.25000000 0.50000000
vt 0.25000000 0.50000000
vt 0.25000000 0.50000000
vt 0.25000000 0.50000000
vt 0.25000000 0.50000000
vt 0.25000000 0.50000000
vt 0.25000000 0.50000000
vt 0.25000000 0.50000000
vt 0.25000000 0.50000000
vt 0.25000000 0.50000000
vt 0.25000000 0.50000000
vt 0.25000000 0.50000000
vt 0.25000000 0.50000000
vt 0.25000000 0.50000000
vt 0.25000000 0.50000000
vt 0.25000000 0.50000000
vt 0.25000000 0.50000000
vt 0.25000000 0.50000000
vt 0.25000000 0.50000000
vt 0.25000000 0.50000000
vt 0.25000000 0.50000000
vt 0.25000000 0.50000000
vt 0.25000000 0.50000000
vt 0.25000000 0.50000000
vt 0.25000000 0.50000000
vt 0.25000000 0.50000000
vt 0.25000000 0.50000000
vt 0.25000000 0.50000000
vt 0.25000000 0.50000000
vt 0.25000000 0.50000000
vt 0.25000000 0.50000000
vt 0.25000000 0.50000000
vt 0.25000000 0.50000000
vt 0.25000000 0.50000000
vt 0.25000000 0.50000000
vt 0.25000000 0.50000000
vt 0.25000000 0.50000000
vt 0.25000000 0.50000000
vt 0.25000000 0.50000000
vt 0.25000000 0.50000000
vt 0.25000000 0.50000000
vt 0.25000000 0.50000000
vt 0.25000000 0.50000000
vt 0.25000000 0.50000000
vt 0.25000000 0.50000000
vt 0.25000000 0.50000000
vt 0.25000000 0.50000000
vt 0.25000000 0.50000000
vt 0.25000000 0.50000000
vt 0.25000000 0.50000000
vt 0.25000000 0.50000000
vt 0.25000000 0.50000000
vt 0.25000000 0.50000000
vt 0.25000000 0.50000000
vt 0.25000000 0.50000000
vt 0.25000000 0.50000000
vt 0.25000000 0.50000000
vt 0.25000000 0.50000000
vt 0.25000000 0.50000000
vt 0.25000000 0.50000000
vt 0.25000000 0.50000000
vt 0.25000000 0.50000000
vt 0.25000000 0.50000000
vt 0.25000000 0.50000000
vt 0.25000000 0.50000000
vt 0.25000000 0.50000000
vt 0.25000000 0.50000000
vt 0.25000000 0.50000000
vt 0.25000000 0.50000000
vt 0.25000000 0.50000000
vt 0.58333333 0.50000000
vt 0.58333333 0.50000000
vt 0.58333333 0.50000000
vt 0.58333333 0.50000000
vt 0.58333333 0.50000000
vt 0.58333333 0.50000000
vt 0.58333333 0.50000000
vt 0.58333333 0.50000000
vt 0.58333333 0.50000000
vt 0.58333333 0.50000000
vt 0.58333333 0.50000000
vt 0.58333333 0.50000000
vt 0.58333333 0.50000000
vt 0.58333333 0.50000000
vt 0.58333333 0.50000000
vt 0.58333333 0.50000000
vt 0.58333333 0.50000000
vt 0.58333333 0.50000000
vt 0.58333333 0.50000000
vt 0.58333333 0.50000000
vt 0.58333333 0.50000000
vt 0.58333333 0.50000000
vt 0.58333333 0.50000000
vt 0.58333333 0.50000000
vt 0.58333333 0.50000000
vt 0.58333333 0.50000000
vt 0.58333333 0.50000000
vt 0.58333333 0.50000000
vt 0.58333333 0.50000000
vt 0.58333333 0.50000000
vt 0.58333333 0.50000000
vt 0.58333333 0.50000000
vt 0.58333333 0.50000000
vt 0.58333333 0.50000000
vt 0.58333333 0.50000000
vt 0.58333333 0.50000000
vt 0.58333333 0.50000000
vt 0.58333333 0.50000000
vt 0.58333333 0.50000000
vt 0.58333333 0.50000000
vt 0.58333333 0.50000000
vt 0.58333333 0.50000000
vt 0.58333333 0.50000000
vt 0.58333333 0.50000000
vt 0.58333333 0.50000000
vt 0.58333333 0.50000000
vt 0.58333333 0.50000000
vt 0.58333333 0.50000000
vt 0.58333333 0.50000000
vt 0.58333333 0.50000000
vt 0.58333333 0.50000000
vt 0.58333333 0.50000000
vt 0.58333333 0.50000000
vt 0.58333333 0.50000000
vt 0.58333333 0.50000000
vt 0.58333333 0.50000000
vt 0.58333333 0.50000000
vt 0.58333333 0.50000000
vt 0.58333333 0.50000000
vt 0.58333333 0.50000000
vt 0.58333333 0.50000000
vt 0.58333333 0.50000000
vt 0.58333333 0.50000000
vt 0.58333333 0.50000000
vt 0.58333333 0.50000000
vt 0.58333333 0.50000000
vt 0.58333333 0.50000000
vt 0.58333333 0.50000000
vt 0.58333333 0.50000000
vt 0.58333333 0.50000000
vt 0.58333333 0.50000000
vt 0.58333333 0.50000000
vt 0.25000000 0.50000000
vt 0.25000000 0.50000000
vt 0.25000000 0.50000000
vt 0.25000000 0.50000000
vt 0.25000000 0.50000000
vt 0.25000000 0.50000000
vt 0.25000000 0.50000000
vt 0.25000000 0.50000000
vt 0.25000000 0.50000000
vt 0.25000000 0.50000000
vt 0.25000000 0.50000000
vt 0.25000000 0.50000000
vt 0.25000000 0.50000000
vt 0.25000000 0.50000000
vt 0.25000000 0.50000000
vt 0.25000000 0.50000000
vt 0.25000000 0.50000000
vt 0.25000000 0.50000000
vt 0.25000000 0.50000000
vt 0.25000000 0.50000000
vt 0.25000000 0.50000000
vt 0.25000000 0.50000000
vt 0.25000000 0.50000000
vt 0.25000000 0.50000000
vt 0.25000000 0.50000000
vt 0.25000000 0.50000000
vt 0.25000000 0.50000000
vt 0.25000000 0.50000000
vt 0.25000000 0.50000000
vt 0.25000000 0.50000000
vt 0.25000000 0.50000000
vt 0.25000000 0.50000000
vt 0.25000000 0.50000000
vt 0.25000000 0.50000000
vt 0.25000000 0.50000000
vt 0.25000000 0.50000000
vt 0.25000000 0.50000000
vt 0.25000000 0.50000000
vt 0.25000000 0.50000000
vt 0.25000000 0.50000000
vt 0.25000000 0.50000000
vt 0.25000000 0.50000000
vt 0.25000000 0.50000000
vt 0.25000000 0.50000000
vt 0.25000000 0.50000000
vt 0.25000000 0.50000000
vt 0.25000000 0.50000000
vt 0.25000000 0.50000000
vt 0.25000000 0.50000000
vt 0.25000000 0.50000000
vt 0.25000000 0.50000000
vt 0.25000000 0.50000000
vt 0.25000000 0.50000000
vt 0.25000000 0.50000000
vt 0.25000000 0.50000000
vt 0.25000000 0.50000000
vt 0.25000000 0.50000000
vt 0.25000000 0.50000000
vt 0.25000000 0.50000000
vt 0.25000000 0.50000000
vt 0.25000000 0.50000000
vt 0.25000000 0.50000000
vt 0.25000000 0.50000000
vt 0.25000000 0.50000000
vt 0.25000000 0.50000000
vt 0.25000000 0.50000000
vt 0.25000000 0.50000000
vt 0.25000000 0.50000000
vt 0.25000000 0.50000000
vt 0.25000000 0.50000000
vt 0.25000000 0.50000000
vt 0.25000000 0.50000000
vt 0.58333333 0.50000000
vt 0.58333333 0.50000000
vt 0.58333333 0.50000000
vt 0.58333333 0.50000000
vt 0.58333333 0.50000000
vt 0.58333333 0.50000000
vt 0.58333333 0.50000000
vt 0.58333333 0.50000000
vt 0.58333333 0.50000000
vt 0.58333333 0.50000000
vt 0.58333333 0.50000000
vt 0.58333333 0.50000000
vt 0.58333333 0.50000000
vt 0.58333333 0.50000000
vt 0.58333333 0.50000000
vt 0.58333333 0.50000000
vt 0.58333333 0.50000000
vt 0.58333333 0.50000000
vt 0.58333333 0.50000000
vt 0.58333333 0.50000000
vt 0.58333333 0.50000000
vt 0.58333333 0.50000000
vt 0.58333333 0.50000000
vt 0.58333333 0.50000000
vt 0.58333333 0.50000000
vt 0.58333333 0.50000000
vt 0.58333333 0.50000000
vt 0.58333333 0.50000000
vt 0.58333333 0.50000000
vt 0.58333333 0.50000000
vt 0.58333333 0.50000000
vt 0.58333333 0.50000000
vt 0.58333333 0.50000000
vt 0.58333333 0.50000000
vt 0.58333333 0.50000000
vt 0.58333333 0.50000000
vt 0.58333333 0.50000000
vt 0.58333333 0.50000000
vt 0.58333333 0.50000000
vt 0.58333333 0.50000000
vt 0.58333333 0.50000000
vt 0.58333333 0.50000000
vt 0.58333333 0.50000000
vt 0.58333333 0.50000000
vt 0.58333333 0.50000000
vt 0.58333333 0.50000000
vt 0.58333333 0.50000000
vt 0.58333333 0.50000000
vt 0.58333333 0.50000000
vt 0.58333333 0.50000000
vt 0.58333333 0.50000000
vt 0.58333333 0.50000000
vt 0.58333333 0.50000000
vt 0.58333333 0.50000000
vt 0.58333333 0.50000000
vt 0.58333333 0.50000000
vt 0.58333333 0.50000000
vt 0.58333333 0.50000000
vt 0.58333333 0.50000000
vt 0.58333333 0.50000000
vt 0.58333333 0.50000000
vt 0.58333333 0.50000000
vt 0.58333333 0.50000000
vt 0.58333333 0.50000000
vt 0.58333333 0.50000000
vt 0.58333333 0.50000000
vt 0.58333333 0.50000000
vt 0.58333333 0.50000000
vt 0.58333333 0.50000000
vt 0.58333333 0.50000000
vt 0.58333333 0.50000000
vt 0.58333333 0.50000000
vt 0.25000000 0.50000000
vt 0.25000000 0.50000000
vt 0.25000000 0.50000000
vt 0.25000000 0.50000000
vt 0.25000000 0.50000000
vt 0.25000000 0.50000000
vt 0.25000000 0.50000000
vt 0.25000000 0.50000000
vt 0.25000000 0.50000000
vt 0.25000000 0.50000000
vt 0.25000000 0.50000000
vt 0.25000000 0.50000000
vt 0.25000000 0.50000000
vt 0.25000000 0.50000000
vt 0.25000000 0.50000000
vt 0.25000000 0.50000000
vt 0.25000000 0.50000000
vt 0.25000000 0.50000000
vt 0.25000000 0.50000000
vt 0.25000000 0.50000000
vt 0.25000000 0.50000000
vt 0.25000000 0.50000000
vt 0.25000000 0.50000000
vt 0.25000000 0.50000000
vt 0.25000000 0.50000000
vt 0.25000000 0.50000000
vt 0.25000000 0.50000000
vt 0.25000000 0.50000000
vt 0.25000000 0.50000000
vt 0.25000000 0.50000000
vt 0.25000000 0.50000000
vt 0.25000000 0.50000000
vt 0.25000000 0.50000000
vt 0.25000000 0.50000000
vt 0.25000000 0.50000000
vt 0.25000000 0.50000000
vt 0.25000000 0.50000000
vt 0.25000000 0.50000000
vt 0.25000000 0.50000000
vt 0.25000000 0.50000000
vt 0.25000000 0.50000000
vt 0.25000000 0.50000000
vt 0.25000000 0.50000000
vt 0.25000000 0.50000000
vt 0.25000000 0.50000000
vt 0.25000000 0.50000000
vt 0.25000000 0.50000000
vt 0.25000000 0.50000000
vt 0.25000000 0.50000000
vt 0.25000000 0.50000000
vt 0.25000000 0.50000000
vt 0.25000000 0.50000000
vt 0.25000000 0.50000000
vt 0.25000000 0.50000000
vt 0.25000000 0.50000000
vt 0.25000000 0.50000000
vt 0.25000000 0.50000000
vt 0.25000000 0.50000000
vt 0.25000000 0.50000000
vt 0.25000000 0.50000000
vt 0.25000000 0.50000000
vt 0.25000000 0.50000000
vt 0.25000000 0.50000000
vt 0.25000000 0.50000000
vt 0.25000000 0.50000000
vt 0.25000000 0.50000000
vt 0.25000000 0.50000000
vt 0.25000000 0.50000000
vt 0.25000000 0.50000000
vt 0.25000000 0.50000000
vt 0.25000000 0.50000000
vt 0.25000000 0.50000000
vt 0.58333333 0.50000000
vt 0.58333333 0.50000000
vt 0.58333333 0.50000000
vt 0.58333333 0.50000000
vt 0.58333333 0.50000000
vt 0.58333333 0.50000000
vt 0.58333333 0.50000000
vt 0.58333333 0.50000000
vt 0.58333333 0.50000000
vt 0.58333333 0.50000000
vt 0.58333333 0.50000000
vt 0.58333333 0.50000000
vt 0.58333333 0.50000000
vt 0.58333333 0.50000000
vt 0.58333333 0.50000000
vt 0.58333333 0.50000000
vt 0.58333333 0.50000000
vt 0.58333333 0.50000000
vt 0.58333333 0.50000000
vt 0.58333333 0.50000000
vt 0.58333333 0.50000000
vt 0.58333333 0.50000000
vt 0.58333333 0.50000000
vt 0.58333333 0.50000000
vt 0.58333333 0.50000000
vt 0.58333333 0.50000000
vt 0.58333333 0.50000000
vt 0.58333333 0.50000000
vt 0.58333333 0.50000000
vt 0.58333333 0.50000000
vt 0.58333333 0.50000000
vt 0.58333333 0.50000000
vt 0.58333333 0.50000000
vt 0.58333333 0.50000000
vt 0.58333333 0.50000000
vt 0.58333333 0.50000000
vt 0.58333333 0.50000000
vt 0.58333333 0.50000000
vt 0.58333333 0.50000000
vt 0.58333333 0.50000000
vt 0.58333333 0.50000000
vt 0.58333333 0.50000000
vt 0.58333333 0.50000000
vt 0.58333333 0.50000000
vt 0.58333333 0.50000000
vt 0.58333333 0.50000000
vt 0.58333333 0.50000000
vt 0.58333333 0.50000000
vt 0.58333333 0.50000000
vt 0.58333333 0.50000000
vt 0.58333333 0.50000000
vt 0.58333333 0.50000000
vt 0.58333333 0.50000000
vt 0.58333333 0.50000000
vt 0.58333333 0.50000000
vt 0.58333333 0.50000000
vt 0.58333333 0.50000000
vt 0.58333333 0.50000000
vt 0.58333333 0.50000000
vt 0.58333333 0.50000000
vt 0.58333333 0.50000000
vt 0.58333333 0.50000000
vt 0.58333333 0.50000000
vt 0.58333333 0.50000000
vt 0.58333333 0.50000000
vt 0.58333333 0.50000000
vt 0.58333333 0.50000000
vt 0.58333333 0.50000000
vt 0.58333333 0.50000000
vt 0.58333333 0.50000000
vt 0.58333333 0.50000000
vt 0.58333333 0.50000000
vt 0.25000000 0.50000000
vt 0.25000000 0.50000000
vt 0.25000000 0.50000000
vt 0.25000000 0.50000000
vt 0.25000000 0.50000000
vt 0.25000000 0.50000000
vt 0.25000000 0.50000000
vt 0.25000000 0.50000000
vt 0.25000000 0.50000000
vt 0.25000000 0.50000000
vt 0.25000000 0.50000000
vt 0.25000000 0.50000000
vt 0.25000000 0.50000000
vt 0.25000000 0.50000000
vt 0.25000000 0.50000000
vt 0.25000000 0.50000000
vt 0.25000000 0.50000000
vt 0.25000000 0.50000000
vt 0.25000000 0.50000000
vt 0.25000000 0.50000000
vt 0.25000000 0.50000000
vt 0.25000000 0.50000000
vt 0.25000000 0.50000000
vt 0.25000000 0.50000000
vt 0.25000000 0.50000000
vt 0.25000000 0.50000000
vt 0.25000000 0.50000000
vt 0.25000000 0.50000000
vt 0.25000000 0.50000000
vt 0.25000000 0.50000000
vt 0.25000000 0.50000000
vt 0.25000000 0.50000000
vt 0.25000000 0.50000000
vt 0.25000000 0.50000000
vt 0.25000000 0.50000000
vt 0.25000000 0.50000000
vt 0.25000000 0.50000000
vt 0.25000000 0.50000000
vt 0.25000000 0.50000000
vt 0.25000000 0.50000000
vt 0.25000000 0.50000000
vt 0.25000000 0.50000000
vt 0.25000000 0.50000000
vt 0.25000000 0.50000000
vt 0.25000000 0.50000000
vt 0.25000000 0.50000000
vt 0.25000000 0.50000000
vt 0.25000000 0.50000000
vt 0.25000000 0.50000000
vt 0.25000000 0.50000000
vt 0.25000000 0.50000000
vt 0.25000000 0.50000000
vt 0.25000000 0.50000000
vt 0.25000000 0.50000000
vt 0.25000000 0.50000000
vt 0.25000000 0.50000000
vt 0.25000000 0.50000000
vt 0.25000000 0.50000000
vt 0.25000000 0.50000000
vt 0.25000000 0.50000000
vt 0.25000000 0.50000000
vt 0.25000000 0.50000000
vt 0.25000000 0.50000000
vt 0.25000000 0.50000000
vt 0.25000000 0.50000000
vt 0.25000000 0.50000000
vt 0.25000000 0.50000000
vt 0.25000000 0.50000000
vt 0.25000000 0.50000000
vt 0.25000000 0.50000000
vt 0.25000000 0.50000000
vt 0.25000000 0.50000000
vt 0.91666667 0.50000000
vt 0.91666667 0.50000000
vt 0.91666667 0.50000000
vt 0.91666667 0.50000000
vt 0.91666667 0.50000000
vt 0.91666667 0.50000000
vt 0.91666667 0.50000000
vt 0.91666667 0.50000000
vt 0.91666667 0.50000000
vt 0.91666667 0.50000000
vt 0.91666667 0.50000000
vt 0.91666667 0.50000000
vt 0.91666667 0.50000000
vt 0.91666667 0.50000000
vt 0.91666667 0.50000000
vt 0.91666667 0.50000000
vt 0.91666667 0.50000000
vt 0.91666667 0.50000000
vt 0.91666667 0.50000000
vt 0.91666667 0.50000000
vt 0.91666667 0.50000000
vt 0.91666667 0.50000000
vt 0.91666667 0.50000000
vt 0.91666667 0.50000000
vt 0.91666667 0.50000000
vt 0.91666667 0.50000000
vt 0.91666667 0.50000000
vt 0.91666667 0.50000000
vt 0.91666667 0.50000000
vt 0.91666667 0.50000000
vt 0.91666667 0.50000000
vt 0.91666667 0.50000000
vt 0.91666667 0.50000000
vt 0.91666667 0.50000000
vt 0.91666667 0.50000000
vt 0.91666667 0.50000000
vt 0.91666667 0.50000000
vt 0.91666667 0.50000000
vt 0.91666667 0.50000000
vt 0.91666667 0.50000000
vt 0.91666667 0.50000000
vt 0.91666667 0.50000000
vt 0.91666667 0.50000000
vt 0.91666667 0.50000000
vt 0.91666667 0.50000000
vt 0.91666667 0.50000000
vt 0.91666667 0.50000000
vt 0.91666667 0.50000000
vt 0.91666667 0.50000000
vt 0.91666667 0.50000000
vt 0.91666667 0.50000000
vt 0.91666667 0.50000000
vt 0.91666667 0.50000000
vt 0.91666667 0.50000000
vt 0.91666667 0.50000000
vt 0.91666667 0.50000000
vt 0.91666667 0.50000000
vt 0.91666667 0.50000000
vt 0.91666667 0.50000000
vt 0.91666667 0.50000000
vt 0.91666667 0.50000000
vt 0.91666667 0.50000000
vt 0.91666667 0.50000000
vt 0.91666667 0.50000000
vt 0.91666667 0.50000000
vt 0.91666667 0.50000000
vt 0.91666667 0.50000000
vt 0.91666667 0.50000000
vt 0.91666667 0.50000000
vt 0.91666667 0.50000000
vt 0.91666667 0.50000000
vt 0.91666667 0.50000000
vt 0.91666667 0.50000000
vt 0.91666667 0.50000000
vt 0.91666667 0.50000000
vt 0.91666667 0.50000000
vt 0.91666667 0.50000000
vt 0.91666667 0.50000000
vt 0.91666667 0.50000000
vt 0.91666667 0.50000000
vt 0.91666667 0.50000000
vt 0.91666667 0.50000000
vt 0.91666667 0.50000000
vt 0.91666667 0.50000000
g paint_lower_body
usemtl P11_car_paint
s off
f 1/1 2/2 3/3 4/4
f 5/5 6/6 7/7 8/8
f 9/9 10/10 11/11 12/12
f 13/13 14/14 15/15 16/16
f 17/17 18/18 19/19 20/20
f 21/21 22/22 23/23 24/24
g paint_cargo_body
usemtl P11_car_paint
s off
f 25/25 26/26 27/27 28/28
f 29/29 30/30 31/31 32/32
f 33/33 34/34 35/35 36/36
f 37/37 38/38 39/39 40/40
f 41/41 42/42 43/43 44/44
f 45/45 46/46 47/47 48/48
g paint_cab
usemtl P11_car_paint
s off
f 49/49 50/50 51/51 52/52
f 53/53 54/54 55/55 56/56
f 57/57 58/58 59/59 60/60
f 61/61 62/62 63/63 64/64
f 65/65 66/66 67/67 68/68
f 69/69 70/70 71/71 72/72
g glass_windshield
usemtl P11_glass
s off
f 73/73 74/74 75/75 76/76
g glass_left_window
usemtl P11_glass
s off
f 77/77 78/78 79/79 80/80
g glass_right_window
usemtl P11_glass
s off
f 81/81 82/82 83/83 84/84
g engine_bay
usemtl P11_engine_bay
s off
f 85/85 86/86 87/87 88/88
f 89/89 90/90 91/91 92/92
f 93/93 94/94 95/95 96/96
f 97/97 98/98 99/99 100/100
f 101/101 102/102 103/103 104/104
f 105/105 106/106 107/107 108/108
g metal_front_bumper
usemtl P11_metal
s off
f 109/109 110/110 111/111 112/112
f 113/113 114/114 115/115 116/116
f 117/117 118/118 119/119 120/120
f 121/121 122/122 123/123 124/124
f 125/125 126/126 127/127 128/128
f 129/129 130/130 131/131 132/132
g metal_rear_bumper
usemtl P11_metal
s off
f 133/133 134/134 135/135 136/136
f 137/137 138/138 139/139 140/140
f 141/141 142/142 143/143 144/144
f 145/145 146/146 147/147 148/148
f 149/149 150/150 151/151 152/152
f 153/153 154/154 155/155 156/156
g metal_front_grille
usemtl P11_metal
s off
f 157/157 158/158 159/159 160/160
f 161/161 162/162 163/163 164/164
f 165/165 166/166 167/167 168/168
f 169/169 170/170 171/171 172/172
f 173/173 174/174 175/175 176/176
f 177/177 178/178 179/179 180/180
g rubber_left_rear_tyre
usemtl P11_rubber
s off
f 181/181 182/182 183/183 184/184
f 185/185 186/186 187/187 188/188
f 189/189 190/190 191/191 192/192
f 193/193 194/194 195/195 196/196
f 197/197 198/198 199/199 200/200
f 201/201 202/202 203/203 204/204
f 205/205 206/206 207/207 208/208
f 209/209 210/210 211/211 212/212
f 213/213 214/214 215/215 216/216
f 217/217 218/218 219/219 220/220
f 221/221 222/222 223/223 224/224
f 225/225 226/226 227/227 228/228
f 229/229 230/230 231/231 232/232 233/233 234/234 235/235 236/236 237/237 238/238 239/239 240/240
f 241/241 242/242 243/243 244/244 245/245 246/246 247/247 248/248 249/249 250/250 251/251 252/252
g metal_left_rear_hub
usemtl P11_metal
s off
f 253/253 254/254 255/255 256/256
f 257/257 258/258 259/259 260/260
f 261/261 262/262 263/263 264/264
f 265/265 266/266 267/267 268/268
f 269/269 270/270 271/271 272/272
f 273/273 274/274 275/275 276/276
f 277/277 278/278 279/279 280/280
f 281/281 282/282 283/283 284/284
f 285/285 286/286 287/287 288/288
f 289/289 290/290 291/291 292/292
f 293/293 294/294 295/295 296/296
f 297/297 298/298 299/299 300/300
f 301/301 302/302 303/303 304/304 305/305 306/306 307/307 308/308 309/309 310/310 311/311 312/312
f 313/313 314/314 315/315 316/316 317/317 318/318 319/319 320/320 321/321 322/322 323/323 324/324
g rubber_left_front_tyre
usemtl P11_rubber
s off
f 325/325 326/326 327/327 328/328
f 329/329 330/330 331/331 332/332
f 333/333 334/334 335/335 336/336
f 337/337 338/338 339/339 340/340
f 341/341 342/342 343/343 344/344
f 345/345 346/346 347/347 348/348
f 349/349 350/350 351/351 352/352
f 353/353 354/354 355/355 356/356
f 357/357 358/358 359/359 360/360
f 361/361 362/362 363/363 364/364
f 365/365 366/366 367/367 368/368
f 369/369 370/370 371/371 372/372
f 373/373 374/374 375/375 376/376 377/377 378/378 379/379 380/380 381/381 382/382 383/383 384/384
f 385/385 386/386 387/387 388/388 389/389 390/390 391/391 392/392 393/393 394/394 395/395 396/396
g metal_left_front_hub
usemtl P11_metal
s off
f 397/397 398/398 399/399 400/400
f 401/401 402/402 403/403 404/404
f 405/405 406/406 407/407 408/408
f 409/409 410/410 411/411 412/412
f 413/413 414/414 415/415 416/416
f 417/417 418/418 419/419 420/420
f 421/421 422/422 423/423 424/424
f 425/425 426/426 427/427 428/428
f 429/429 430/430 431/431 432/432
f 433/433 434/434 435/435 436/436
f 437/437 438/438 439/439 440/440
f 441/441 442/442 443/443 444/444
f 445/445 446/446 447/447 448/448 449/449 450/450 451/451 452/452 453/453 454/454 455/455 456/456
f 457/457 458/458 459/459 460/460 461/461 462/462 463/463 464/464 465/465 466/466 467/467 468/468
g rubber_right_rear_tyre
usemtl P11_rubber
s off
f 469/469 470/470 471/471 472/472
f 473/473 474/474 475/475 476/476
f 477/477 478/478 479/479 480/480
f 481/481 482/482 483/483 484/484
f 485/485 486/486 487/487 488/488
f 489/489 490/490 491/491 492/492
f 493/493 494/494 495/495 496/496
f 497/497 498/498 499/499 500/500
f 501/501 502/502 503/503 504/504
f 505/505 506/506 507/507 508/508
f 509/509 510/510 511/511 512/512
f 513/513 514/514 515/515 516/516
f 517/517 518/518 519/519 520/520 521/521 522/522 523/523 524/524 525/525 526/526 527/527 528/528
f 529/529 530/530 531/531 532/532 533/533 534/534 535/535 536/536 537/537 538/538 539/539 540/540
g metal_right_rear_hub
usemtl P11_metal
s off
f 541/541 542/542 543/543 544/544
f 545/545 546/546 547/547 548/548
f 549/549 550/550 551/551 552/552
f 553/553 554/554 555/555 556/556
f 557/557 558/558 559/559 560/560
f 561/561 562/562 563/563 564/564
f 565/565 566/566 567/567 568/568
f 569/569 570/570 571/571 572/572
f 573/573 574/574 575/575 576/576
f 577/577 578/578 579/579 580/580
f 581/581 582/582 583/583 584/584
f 585/585 586/586 587/587 588/588
f 589/589 590/590 591/591 592/592 593/593 594/594 595/595 596/596 597/597 598/598 599/599 600/600
f 601/601 602/602 603/603 604/604 605/605 606/606 607/607 608/608 609/609 610/610 611/611 612/612
g rubber_right_front_tyre
usemtl P11_rubber
s off
f 613/613 614/614 615/615 616/616
f 617/617 618/618 619/619 620/620
f 621/621 622/622 623/623 624/624
f 625/625 626/626 627/627 628/628
f 629/629 630/630 631/631 632/632
f 633/633 634/634 635/635 636/636
f 637/637 638/638 639/639 640/640
f 641/641 642/642 643/643 644/644
f 645/645 646/646 647/647 648/648
f 649/649 650/650 651/651 652/652
f 653/653 654/654 655/655 656/656
f 657/657 658/658 659/659 660/660
f 661/661 662/662 663/663 664/664 665/665 666/666 667/667 668/668 669/669 670/670 671/671 672/672
f 673/673 674/674 675/675 676/676 677/677 678/678 679/679 680/680 681/681 682/682 683/683 684/684
g metal_right_front_hub
usemtl P11_metal
s off
f 685/685 686/686 687/687 688/688
f 689/689 690/690 691/691 692/692
f 693/693 694/694 695/695 696/696
f 697/697 698/698 699/699 700/700
f 701/701 702/702 703/703 704/704
f 705/705 706/706 707/707 708/708
f 709/709 710/710 711/711 712/712
f 713/713 714/714 715/715 716/716
f 717/717 718/718 719/719 720/720
f 721/721 722/722 723/723 724/724
f 725/725 726/726 727/727 728/728
f 729/729 730/730 731/731 732/732
f 733/733 734/734 735/735 736/736 737/737 738/738 739/739 740/740 741/741 742/742 743/743 744/744
f 745/745 746/746 747/747 748/748 749/749 750/750 751/751 752/752 753/753 754/754 755/755 756/756
g exhaust_tailpipe
usemtl P11_exhaust_tailpipe
s off
f 757/757 758/758 759/759 760/760
f 761/761 762/762 763/763 764/764
f 765/765 766/766 767/767 768/768
f 769/769 770/770 771/771 772/772
f 773/773 774/774 775/775 776/776
f 777/777 778/778 779/779 780/780
f 781/781 782/782 783/783 784/784
f 785/785 786/786 787/787 788/788
f 789/789 790/790 791/791 792/792
f 793/793 794/794 795/795 796/796
f 797/797 798/798 799/799 800/800 801/801 802/802 803/803 804/804 805/805 806/806
f 807/807 808/808 809/809 810/810 811/811 812/812 813/813 814/814 815/815 816/816
g exhaust_muffler
usemtl P11_exhaust_tailpipe
s off
f 817/817 818/818 819/819 820/820
f 821/821 822/822 823/823 824/824
f 825/825 826/826 827/827 828/828
f 829/829 830/830 831/831 832/832
f 833/833 834/834 835/835 836/836
f 837/837 838/838 839/839 840/840
